<svg xmlns="http://www.w3.org/2000/svg" width="676" height="1648" viewBox="0 0 676 1648" font-family="monospace" font-size="10">
<rect x="0" y="0" width="676" height="1648" fill="#ffffff"/>
<text x="20" y="36" font-size="16" font-weight="bold" fill="#111111">ULX3S GPIO headers J1/J2 -- KGPE-D16 assignment</text>
<text x="20" y="50" fill="#111111">Full 2x20 headers in board row order (from the ULX3S PCB): gp/gn pairs plus the power/GND pins. J1 = idx 0-13, J2 = idx 14-27, drawn 27 (top) -> 14 (bottom) as on the board. idx 11-13 shared with the on-board ESP32 (excluded from the usable pool).</text>
<text x="20" y="62" fill="#111111">idx 14-17 double as onboard ADC AIN0-7 -- assigned anyway (ADC unused by this design). J1 supply = 2V5_3V3; J2 supply = +5V (via STPS2L40AF) and +3V3. FPGA ball in parens.</text>
<rect x="20" y="78" width="12" height="12" fill="#1b5e20" fill-opacity="0.2" stroke="#1b5e20"/>
<text x="36" y="88" fill="#111111">SPI</text>
<rect x="100" y="78" width="12" height="12" fill="#0d47a1" fill-opacity="0.2" stroke="#0d47a1"/>
<text x="116" y="88" fill="#111111">UART</text>
<rect x="180" y="78" width="12" height="12" fill="#b71c1c" fill-opacity="0.2" stroke="#b71c1c"/>
<text x="196" y="88" fill="#111111">JTAG</text>
<rect x="260" y="78" width="12" height="12" fill="#4a148c" fill-opacity="0.2" stroke="#4a148c"/>
<text x="276" y="88" fill="#111111">GPIO</text>
<rect x="340" y="78" width="12" height="12" fill="#fbe9e7" stroke="#e65100" stroke-dasharray="2,2"/>
<text x="356" y="88" fill="#111111">ESP32-reserved</text>
<rect x="460" y="78" width="12" height="12" fill="none" stroke="#e65100" stroke-width="2"/>
<text x="476" y="88" fill="#111111">ADC-shared</text>
<rect x="560" y="78" width="12" height="12" fill="none" stroke="#9e9e9e" stroke-dasharray="2,2"/>
<text x="576" y="88" fill="#111111">unassigned</text>
<rect x="660" y="78" width="12" height="12" fill="#e65100"/>
<text x="676" y="88" fill="#111111">supply</text>
<rect x="730" y="78" width="12" height="12" fill="#111111"/>
<text x="746" y="88" fill="#111111">GND</text>
<text x="20" y="132" font-weight="bold" fill="#111111">ULX3S J1</text>
<text x="20" y="157.0" fill="#e65100">PWR</text>
<rect x="66" y="138" width="280" height="30" fill="#e65100" stroke="#e65100" stroke-width="1.5" rx="3"/>
<text x="72" y="150" fill="#ffffff" font-weight="bold">2V5_3V3</text>
<text x="72" y="162" fill="#ffffff">supply</text>
<rect x="376" y="138" width="280" height="30" fill="#e65100" stroke="#e65100" stroke-width="1.5" rx="3"/>
<text x="382" y="150" fill="#ffffff" font-weight="bold">2V5_3V3</text>
<text x="382" y="162" fill="#ffffff">supply</text>
<text x="20" y="193.0" fill="#111111">GND</text>
<rect x="66" y="174" width="280" height="30" fill="#111111" stroke="#111111" stroke-width="1.5" rx="3"/>
<text x="72" y="186" fill="#ffffff" font-weight="bold">GND</text>
<text x="72" y="198" fill="#ffffff">ground</text>
<rect x="376" y="174" width="280" height="30" fill="#111111" stroke="#111111" stroke-width="1.5" rx="3"/>
<text x="382" y="186" fill="#ffffff" font-weight="bold">GND</text>
<text x="382" y="198" fill="#ffffff">ground</text>
<text x="20" y="229.0" fill="#111111">idx0</text>
<rect x="66" y="210" width="280" height="30" fill="#b71c1c" fill-opacity="0.15" stroke="#b71c1c" stroke-width="1.5"  rx="3"/>
<text x="72" y="222" fill="#b71c1c" font-weight="bold">gp0 (B11)</text>
<text x="72" y="234" fill="#b71c1c">AST_JTAG1.TCK</text>
<rect x="376" y="210" width="280" height="30" fill="#b71c1c" fill-opacity="0.15" stroke="#b71c1c" stroke-width="1.5"  rx="3"/>
<text x="382" y="222" fill="#b71c1c" font-weight="bold">gn0 (C11)</text>
<text x="382" y="234" fill="#b71c1c">AST_JTAG1.NTRST</text>
<text x="20" y="265.0" fill="#111111">idx1</text>
<rect x="66" y="246" width="280" height="30" fill="#b71c1c" fill-opacity="0.15" stroke="#b71c1c" stroke-width="1.5"  rx="3"/>
<text x="72" y="258" fill="#b71c1c" font-weight="bold">gp1 (A10)</text>
<text x="72" y="270" fill="#b71c1c">AST_JTAG1.TMS</text>
<rect x="376" y="246" width="280" height="30" fill="#b71c1c" fill-opacity="0.15" stroke="#b71c1c" stroke-width="1.5"  rx="3"/>
<text x="382" y="258" fill="#b71c1c" font-weight="bold">gn1 (A11)</text>
<text x="382" y="270" fill="#b71c1c">AST_JTAG1.RTCK</text>
<text x="20" y="301.0" fill="#111111">idx2</text>
<rect x="66" y="282" width="280" height="30" fill="#b71c1c" fill-opacity="0.15" stroke="#b71c1c" stroke-width="1.5"  rx="3"/>
<text x="72" y="294" fill="#b71c1c" font-weight="bold">gp2 (A9)</text>
<text x="72" y="306" fill="#b71c1c">AST_JTAG1.TDI</text>
<rect x="376" y="282" width="280" height="30" fill="#b71c1c" fill-opacity="0.15" stroke="#b71c1c" stroke-width="1.5"  rx="3"/>
<text x="382" y="294" fill="#b71c1c" font-weight="bold">gn2 (B10)</text>
<text x="382" y="306" fill="#b71c1c">AST_JTAG1.SRST#</text>
<text x="20" y="337.0" fill="#111111">idx3</text>
<rect x="66" y="318" width="280" height="30" fill="#b71c1c" fill-opacity="0.15" stroke="#b71c1c" stroke-width="1.5"  rx="3"/>
<text x="72" y="330" fill="#b71c1c" font-weight="bold">gp3 (B9)</text>
<text x="72" y="342" fill="#b71c1c">AST_JTAG1.TDO</text>
<rect x="376" y="318" width="280" height="30" fill="none" stroke="#9e9e9e" stroke-width="1.5" stroke-dasharray="2,2" rx="3"/>
<text x="382" y="330" fill="#9e9e9e" font-weight="bold">gn3 (C10)</text>
<text x="382" y="342" fill="#9e9e9e">unassigned</text>
<text x="20" y="373.0" fill="#111111">idx4</text>
<rect x="66" y="354" width="280" height="30" fill="none" stroke="#9e9e9e" stroke-width="1.5" stroke-dasharray="2,2" rx="3"/>
<text x="72" y="366" fill="#9e9e9e" font-weight="bold">gp4 (A7)</text>
<text x="72" y="378" fill="#9e9e9e">unassigned</text>
<rect x="376" y="354" width="280" height="30" fill="none" stroke="#9e9e9e" stroke-width="1.5" stroke-dasharray="2,2" rx="3"/>
<text x="382" y="366" fill="#9e9e9e" font-weight="bold">gn4 (A8)</text>
<text x="382" y="378" fill="#9e9e9e">unassigned</text>
<text x="20" y="409.0" fill="#111111">idx5</text>
<rect x="66" y="390" width="280" height="30" fill="#0d47a1" fill-opacity="0.15" stroke="#0d47a1" stroke-width="1.5"  rx="3"/>
<text x="72" y="402" fill="#0d47a1" font-weight="bold">gp5 (C8)</text>
<text x="72" y="414" fill="#0d47a1">AST_UART1.BMC_RXD</text>
<rect x="376" y="390" width="280" height="30" fill="#0d47a1" fill-opacity="0.15" stroke="#0d47a1" stroke-width="1.5"  rx="3"/>
<text x="382" y="402" fill="#0d47a1" font-weight="bold">gn5 (B8)</text>
<text x="382" y="414" fill="#0d47a1">AST_UART1.BMC_TXD</text>
<text x="20" y="445.0" fill="#111111">idx6</text>
<rect x="66" y="426" width="280" height="30" fill="none" stroke="#9e9e9e" stroke-width="1.5" stroke-dasharray="2,2" rx="3"/>
<text x="72" y="438" fill="#9e9e9e" font-weight="bold">gp6 (C6)</text>
<text x="72" y="450" fill="#9e9e9e">unassigned</text>
<rect x="376" y="426" width="280" height="30" fill="none" stroke="#9e9e9e" stroke-width="1.5" stroke-dasharray="2,2" rx="3"/>
<text x="382" y="438" fill="#9e9e9e" font-weight="bold">gn6 (C7)</text>
<text x="382" y="450" fill="#9e9e9e">unassigned</text>
<text x="20" y="481.0" fill="#e65100">PWR</text>
<rect x="66" y="462" width="280" height="30" fill="#e65100" stroke="#e65100" stroke-width="1.5" rx="3"/>
<text x="72" y="474" fill="#ffffff" font-weight="bold">2V5_3V3</text>
<text x="72" y="486" fill="#ffffff">supply</text>
<rect x="376" y="462" width="280" height="30" fill="#e65100" stroke="#e65100" stroke-width="1.5" rx="3"/>
<text x="382" y="474" fill="#ffffff" font-weight="bold">2V5_3V3</text>
<text x="382" y="486" fill="#ffffff">supply</text>
<text x="20" y="517.0" fill="#111111">GND</text>
<rect x="66" y="498" width="280" height="30" fill="#111111" stroke="#111111" stroke-width="1.5" rx="3"/>
<text x="72" y="510" fill="#ffffff" font-weight="bold">GND</text>
<text x="72" y="522" fill="#ffffff">ground</text>
<rect x="376" y="498" width="280" height="30" fill="#111111" stroke="#111111" stroke-width="1.5" rx="3"/>
<text x="382" y="510" fill="#ffffff" font-weight="bold">GND</text>
<text x="382" y="522" fill="#ffffff">ground</text>
<text x="20" y="553.0" fill="#111111">idx7</text>
<rect x="66" y="534" width="280" height="30" fill="#1b5e20" fill-opacity="0.15" stroke="#1b5e20" stroke-width="1.5"  rx="3"/>
<text x="72" y="546" fill="#1b5e20" font-weight="bold">gp7 (A6)</text>
<text x="72" y="558" fill="#1b5e20">BMC_FW1.CS0</text>
<rect x="376" y="534" width="280" height="30" fill="#1b5e20" fill-opacity="0.15" stroke="#1b5e20" stroke-width="1.5"  rx="3"/>
<text x="382" y="546" fill="#1b5e20" font-weight="bold">gn7 (B6)</text>
<text x="382" y="558" fill="#1b5e20">BMC_FW1.CS2</text>
<text x="20" y="589.0" fill="#111111">idx8</text>
<rect x="66" y="570" width="280" height="30" fill="#1b5e20" fill-opacity="0.15" stroke="#1b5e20" stroke-width="1.5"  rx="3"/>
<text x="72" y="582" fill="#1b5e20" font-weight="bold">gp8 (A4)</text>
<text x="72" y="594" fill="#1b5e20">BMC_FW1.SCK</text>
<rect x="376" y="570" width="280" height="30" fill="#1b5e20" fill-opacity="0.15" stroke="#1b5e20" stroke-width="1.5"  rx="3"/>
<text x="382" y="582" fill="#1b5e20" font-weight="bold">gn8 (A5)</text>
<text x="382" y="594" fill="#1b5e20">BMC_FW1.IKVMEN#</text>
<text x="20" y="625.0" fill="#111111">idx9</text>
<rect x="66" y="606" width="280" height="30" fill="#1b5e20" fill-opacity="0.15" stroke="#1b5e20" stroke-width="1.5"  rx="3"/>
<text x="72" y="618" fill="#1b5e20" font-weight="bold">gp9 (A2)</text>
<text x="72" y="630" fill="#1b5e20">BMC_FW1.MOSI/SPIDO</text>
<rect x="376" y="606" width="280" height="30" fill="#1b5e20" fill-opacity="0.15" stroke="#1b5e20" stroke-width="1.5"  rx="3"/>
<text x="382" y="618" fill="#1b5e20" font-weight="bold">gn9 (B1)</text>
<text x="382" y="630" fill="#1b5e20">BMC_FW1.BMC_PRESENT#</text>
<text x="20" y="661.0" fill="#111111">idx10</text>
<rect x="66" y="642" width="280" height="30" fill="#1b5e20" fill-opacity="0.15" stroke="#1b5e20" stroke-width="1.5"  rx="3"/>
<text x="72" y="654" fill="#1b5e20" font-weight="bold">gp10 (C4)</text>
<text x="72" y="666" fill="#1b5e20">BMC_FW1.MISO/SPIDI</text>
<rect x="376" y="642" width="280" height="30" fill="#1b5e20" fill-opacity="0.15" stroke="#1b5e20" stroke-width="1.5"  rx="3"/>
<text x="382" y="654" fill="#1b5e20" font-weight="bold">gn10 (B4)</text>
<text x="382" y="666" fill="#1b5e20">BMC_FW1.SOLEN#</text>
<text x="20" y="697.0" fill="#111111">idx11</text>
<rect x="66" y="678" width="280" height="30" fill="#fbe9e7" stroke="#e65100" stroke-width="1.5" stroke-dasharray="2,2" rx="3"/>
<text x="72" y="690" fill="#e65100" font-weight="bold">gp11 (F4)</text>
<text x="72" y="702" fill="#e65100">ESP32 reserved</text>
<rect x="376" y="678" width="280" height="30" fill="#fbe9e7" stroke="#e65100" stroke-width="1.5" stroke-dasharray="2,2" rx="3"/>
<text x="382" y="690" fill="#e65100" font-weight="bold">gn11 (E3)</text>
<text x="382" y="702" fill="#e65100">ESP32 reserved</text>
<text x="20" y="733.0" fill="#111111">idx12</text>
<rect x="66" y="714" width="280" height="30" fill="#fbe9e7" stroke="#e65100" stroke-width="1.5" stroke-dasharray="2,2" rx="3"/>
<text x="72" y="726" fill="#e65100" font-weight="bold">gp12 (G3)</text>
<text x="72" y="738" fill="#e65100">ESP32 reserved</text>
<rect x="376" y="714" width="280" height="30" fill="#fbe9e7" stroke="#e65100" stroke-width="1.5" stroke-dasharray="2,2" rx="3"/>
<text x="382" y="726" fill="#e65100" font-weight="bold">gn12 (F3)</text>
<text x="382" y="738" fill="#e65100">ESP32 reserved</text>
<text x="20" y="769.0" fill="#111111">idx13</text>
<rect x="66" y="750" width="280" height="30" fill="#fbe9e7" stroke="#e65100" stroke-width="1.5" stroke-dasharray="2,2" rx="3"/>
<text x="72" y="762" fill="#e65100" font-weight="bold">gp13 (H4)</text>
<text x="72" y="774" fill="#e65100">ESP32 reserved</text>
<rect x="376" y="750" width="280" height="30" fill="#fbe9e7" stroke="#e65100" stroke-width="1.5" stroke-dasharray="2,2" rx="3"/>
<text x="382" y="762" fill="#e65100" font-weight="bold">gn13 (G5)</text>
<text x="382" y="774" fill="#e65100">ESP32 reserved</text>
<text x="20" y="805.0" fill="#111111">GND</text>
<rect x="66" y="786" width="280" height="30" fill="#111111" stroke="#111111" stroke-width="1.5" rx="3"/>
<text x="72" y="798" fill="#ffffff" font-weight="bold">GND</text>
<text x="72" y="810" fill="#ffffff">ground</text>
<rect x="376" y="786" width="280" height="30" fill="#111111" stroke="#111111" stroke-width="1.5" rx="3"/>
<text x="382" y="798" fill="#ffffff" font-weight="bold">GND</text>
<text x="382" y="810" fill="#ffffff">ground</text>
<text x="20" y="841.0" fill="#e65100">PWR</text>
<rect x="66" y="822" width="280" height="30" fill="#e65100" stroke="#e65100" stroke-width="1.5" rx="3"/>
<text x="72" y="834" fill="#ffffff" font-weight="bold">2V5_3V3</text>
<text x="72" y="846" fill="#ffffff">supply</text>
<rect x="376" y="822" width="280" height="30" fill="#e65100" stroke="#e65100" stroke-width="1.5" rx="3"/>
<text x="382" y="834" fill="#ffffff" font-weight="bold">2V5_3V3</text>
<text x="382" y="846" fill="#ffffff">supply</text>
<text x="20" y="902" font-weight="bold" fill="#111111">ULX3S J2</text>
<text x="20" y="927.0" fill="#e65100">PWR</text>
<rect x="66" y="908" width="280" height="30" fill="#e65100" stroke="#e65100" stroke-width="1.5" rx="3"/>
<text x="72" y="920" fill="#ffffff" font-weight="bold">+5V</text>
<text x="72" y="932" fill="#ffffff">supply</text>
<rect x="376" y="908" width="280" height="30" fill="#e65100" stroke="#e65100" stroke-width="1.5" rx="3"/>
<text x="382" y="920" fill="#ffffff" font-weight="bold">+5V</text>
<text x="382" y="932" fill="#ffffff">supply</text>
<text x="20" y="963.0" fill="#111111">GND</text>
<rect x="66" y="944" width="280" height="30" fill="#111111" stroke="#111111" stroke-width="1.5" rx="3"/>
<text x="72" y="956" fill="#ffffff" font-weight="bold">GND</text>
<text x="72" y="968" fill="#ffffff">ground</text>
<rect x="376" y="944" width="280" height="30" fill="#111111" stroke="#111111" stroke-width="1.5" rx="3"/>
<text x="382" y="956" fill="#ffffff" font-weight="bold">GND</text>
<text x="382" y="968" fill="#ffffff">ground</text>
<text x="20" y="999.0" fill="#111111">idx27</text>
<rect x="66" y="980" width="280" height="30" fill="#4a148c" fill-opacity="0.15" stroke="#4a148c" stroke-width="1.5"  rx="3"/>
<text x="72" y="992" fill="#4a148c" font-weight="bold">gp27 (D13)</text>
<text x="72" y="1004" fill="#4a148c">JUMPERS.IPMI_SEL</text>
<rect x="376" y="980" width="280" height="30" fill="#4a148c" fill-opacity="0.15" stroke="#4a148c" stroke-width="1.5"  rx="3"/>
<text x="382" y="992" fill="#4a148c" font-weight="bold">gn27 (E13)</text>
<text x="382" y="1004" fill="#4a148c">JUMPERS.CLRTC</text>
<text x="20" y="1035.0" fill="#111111">idx26</text>
<rect x="66" y="1016" width="280" height="30" fill="#4a148c" fill-opacity="0.15" stroke="#4a148c" stroke-width="1.5"  rx="3"/>
<text x="72" y="1028" fill="#4a148c" font-weight="bold">gp26 (B13)</text>
<text x="72" y="1040" fill="#4a148c">JUMPERS.VGA_SW1</text>
<rect x="376" y="1016" width="280" height="30" fill="#4a148c" fill-opacity="0.15" stroke="#4a148c" stroke-width="1.5"  rx="3"/>
<text x="382" y="1028" fill="#4a148c" font-weight="bold">gn26 (C13)</text>
<text x="382" y="1040" fill="#4a148c">JUMPERS.BIOS_RECOVERY#</text>
<text x="20" y="1071.0" fill="#111111">idx25</text>
<rect x="66" y="1052" width="280" height="30" fill="#4a148c" fill-opacity="0.15" stroke="#4a148c" stroke-width="1.5"  rx="3"/>
<text x="72" y="1064" fill="#4a148c" font-weight="bold">gp25 (D14)</text>
<text x="72" y="1076" fill="#4a148c">PANEL1.NMIBNT#</text>
<rect x="376" y="1052" width="280" height="30" fill="#4a148c" fill-opacity="0.15" stroke="#4a148c" stroke-width="1.5"  rx="3"/>
<text x="382" y="1064" fill="#4a148c" font-weight="bold">gn25 (E14)</text>
<text x="382" y="1076" fill="#4a148c">PANEL1.MLED</text>
<text x="20" y="1107.0" fill="#111111">idx24</text>
<rect x="66" y="1088" width="280" height="30" fill="#4a148c" fill-opacity="0.15" stroke="#4a148c" stroke-width="1.5"  rx="3"/>
<text x="72" y="1100" fill="#4a148c" font-weight="bold">gp24 (C16)</text>
<text x="72" y="1112" fill="#4a148c">PANEL1.RESET#</text>
<rect x="376" y="1088" width="280" height="30" fill="#4a148c" fill-opacity="0.15" stroke="#4a148c" stroke-width="1.5"  rx="3"/>
<text x="382" y="1100" fill="#4a148c" font-weight="bold">gn24 (D16)</text>
<text x="382" y="1112" fill="#4a148c">PANEL1.HDLED</text>
<text x="20" y="1143.0" fill="#111111">idx23</text>
<rect x="66" y="1124" width="280" height="30" fill="#4a148c" fill-opacity="0.15" stroke="#4a148c" stroke-width="1.5"  rx="3"/>
<text x="72" y="1136" fill="#4a148c" font-weight="bold">gp23 (B17)</text>
<text x="72" y="1148" fill="#4a148c">PANEL1.PWRBTN#</text>
<rect x="376" y="1124" width="280" height="30" fill="#4a148c" fill-opacity="0.15" stroke="#4a148c" stroke-width="1.5"  rx="3"/>
<text x="382" y="1136" fill="#4a148c" font-weight="bold">gn23 (C17)</text>
<text x="382" y="1148" fill="#4a148c">PANEL1.PLED</text>
<text x="20" y="1179.0" fill="#111111">idx22</text>
<rect x="66" y="1160" width="280" height="30" fill="#b71c1c" fill-opacity="0.15" stroke="#b71c1c" stroke-width="1.5"  rx="3"/>
<text x="72" y="1172" fill="#b71c1c" font-weight="bold">gp22 (B15)</text>
<text x="72" y="1184" fill="#b71c1c">AMD_HDT.HDT_TDI</text>
<rect x="376" y="1160" width="280" height="30" fill="none" stroke="#9e9e9e" stroke-width="1.5" stroke-dasharray="2,2" rx="3"/>
<text x="382" y="1172" fill="#9e9e9e" font-weight="bold">gn22 (C15)</text>
<text x="382" y="1184" fill="#9e9e9e">unassigned</text>
<text x="20" y="1215.0" fill="#111111">idx21</text>
<rect x="66" y="1196" width="280" height="30" fill="#b71c1c" fill-opacity="0.15" stroke="#b71c1c" stroke-width="1.5"  rx="3"/>
<text x="72" y="1208" fill="#b71c1c" font-weight="bold">gp21 (C18)</text>
<text x="72" y="1220" fill="#b71c1c">AMD_HDT.HDT_TMS</text>
<rect x="376" y="1196" width="280" height="30" fill="#b71c1c" fill-opacity="0.15" stroke="#b71c1c" stroke-width="1.5"  rx="3"/>
<text x="382" y="1208" fill="#b71c1c" font-weight="bold">gn21 (D17)</text>
<text x="382" y="1220" fill="#b71c1c">AMD_HDT.HDT_TRST_L</text>
<text x="20" y="1251.0" fill="#111111">GND</text>
<rect x="66" y="1232" width="280" height="30" fill="#111111" stroke="#111111" stroke-width="1.5" rx="3"/>
<text x="72" y="1244" fill="#ffffff" font-weight="bold">GND</text>
<text x="72" y="1256" fill="#ffffff">ground</text>
<rect x="376" y="1232" width="280" height="30" fill="#111111" stroke="#111111" stroke-width="1.5" rx="3"/>
<text x="382" y="1244" fill="#ffffff" font-weight="bold">GND</text>
<text x="382" y="1256" fill="#ffffff">ground</text>
<text x="20" y="1287.0" fill="#e65100">PWR</text>
<rect x="66" y="1268" width="280" height="30" fill="#e65100" stroke="#e65100" stroke-width="1.5" rx="3"/>
<text x="72" y="1280" fill="#ffffff" font-weight="bold">+3V3</text>
<text x="72" y="1292" fill="#ffffff">supply</text>
<rect x="376" y="1268" width="280" height="30" fill="#e65100" stroke="#e65100" stroke-width="1.5" rx="3"/>
<text x="382" y="1280" fill="#ffffff" font-weight="bold">+3V3</text>
<text x="382" y="1292" fill="#ffffff">supply</text>
<text x="20" y="1323.0" fill="#111111">idx20</text>
<rect x="66" y="1304" width="280" height="30" fill="#b71c1c" fill-opacity="0.15" stroke="#b71c1c" stroke-width="1.5"  rx="3"/>
<text x="72" y="1316" fill="#b71c1c" font-weight="bold">gp20 (D18)</text>
<text x="72" y="1328" fill="#b71c1c">AMD_HDT.HDT_TCK</text>
<rect x="376" y="1304" width="280" height="30" fill="#b71c1c" fill-opacity="0.15" stroke="#b71c1c" stroke-width="1.5"  rx="3"/>
<text x="382" y="1316" fill="#b71c1c" font-weight="bold">gn20 (E17)</text>
<text x="382" y="1328" fill="#b71c1c">AMD_HDT.HDT_TDO</text>
<text x="20" y="1359.0" fill="#111111">idx19</text>
<rect x="66" y="1340" width="280" height="30" fill="none" stroke="#9e9e9e" stroke-width="1.5" stroke-dasharray="2,2" rx="3"/>
<text x="72" y="1352" fill="#9e9e9e" font-weight="bold">gp19 (F17)</text>
<text x="72" y="1364" fill="#9e9e9e">DIFF</text>
<rect x="376" y="1340" width="280" height="30" fill="none" stroke="#9e9e9e" stroke-width="1.5" stroke-dasharray="2,2" rx="3"/>
<text x="382" y="1352" fill="#9e9e9e" font-weight="bold">gn19 (G18)</text>
<text x="382" y="1364" fill="#9e9e9e">DIFF</text>
<text x="20" y="1395.0" fill="#111111">idx18</text>
<rect x="66" y="1376" width="280" height="30" fill="#0d47a1" fill-opacity="0.15" stroke="#0d47a1" stroke-width="1.5"  rx="3"/>
<text x="72" y="1388" fill="#0d47a1" font-weight="bold">gp18 (H18)</text>
<text x="72" y="1400" fill="#0d47a1">COM2.COM2_TX</text>
<rect x="376" y="1376" width="280" height="30" fill="#0d47a1" fill-opacity="0.15" stroke="#0d47a1" stroke-width="1.5"  rx="3"/>
<text x="382" y="1388" fill="#0d47a1" font-weight="bold">gn18 (H17)</text>
<text x="382" y="1400" fill="#0d47a1">COM2.COM2_RX</text>
<text x="20" y="1431.0" fill="#111111">idx17</text>
<rect x="66" y="1412" width="280" height="30" fill="#0d47a1" fill-opacity="0.15" stroke="#0d47a1" stroke-width="1.5"  rx="3"/>
<text x="72" y="1424" fill="#0d47a1" font-weight="bold">gp17 (L16)</text>
<text x="72" y="1436" fill="#0d47a1">COM1.COM1_TX</text>
<rect x="332" y="1414" width="10" height="10" fill="none" stroke="#e65100" stroke-width="2"/>
<rect x="376" y="1412" width="280" height="30" fill="#0d47a1" fill-opacity="0.15" stroke="#0d47a1" stroke-width="1.5"  rx="3"/>
<text x="382" y="1424" fill="#0d47a1" font-weight="bold">gn17 (L17)</text>
<text x="382" y="1436" fill="#0d47a1">COM1.COM1_RX</text>
<rect x="642" y="1414" width="10" height="10" fill="none" stroke="#e65100" stroke-width="2"/>
<text x="20" y="1467.0" fill="#111111">idx16</text>
<rect x="66" y="1448" width="280" height="30" fill="#1b5e20" fill-opacity="0.15" stroke="#1b5e20" stroke-width="1.5"  rx="3"/>
<text x="72" y="1460" fill="#1b5e20" font-weight="bold">gp16 (N16)</text>
<text x="72" y="1472" fill="#1b5e20">FU1.MOSI/DI</text>
<rect x="332" y="1450" width="10" height="10" fill="none" stroke="#e65100" stroke-width="2"/>
<rect x="376" y="1448" width="280" height="30" fill="none" stroke="#9e9e9e" stroke-width="1.5" stroke-dasharray="2,2" rx="3"/>
<text x="382" y="1460" fill="#9e9e9e" font-weight="bold">gn16 (M17)</text>
<text x="382" y="1472" fill="#9e9e9e">DIFF, ADC AIN5/AIN4</text>
<rect x="642" y="1450" width="10" height="10" fill="none" stroke="#e65100" stroke-width="2"/>
<text x="20" y="1503.0" fill="#111111">idx15</text>
<rect x="66" y="1484" width="280" height="30" fill="#1b5e20" fill-opacity="0.15" stroke="#1b5e20" stroke-width="1.5"  rx="3"/>
<text x="72" y="1496" fill="#1b5e20" font-weight="bold">gp15 (N17)</text>
<text x="72" y="1508" fill="#1b5e20">FU1.CLK</text>
<rect x="332" y="1486" width="10" height="10" fill="none" stroke="#e65100" stroke-width="2"/>
<rect x="376" y="1484" width="280" height="30" fill="#1b5e20" fill-opacity="0.15" stroke="#1b5e20" stroke-width="1.5"  rx="3"/>
<text x="382" y="1496" fill="#1b5e20" font-weight="bold">gn15 (P16)</text>
<text x="382" y="1508" fill="#1b5e20">FU1.HOLD#</text>
<rect x="642" y="1486" width="10" height="10" fill="none" stroke="#e65100" stroke-width="2"/>
<text x="20" y="1539.0" fill="#111111">idx14</text>
<rect x="66" y="1520" width="280" height="30" fill="#1b5e20" fill-opacity="0.15" stroke="#1b5e20" stroke-width="1.5"  rx="3"/>
<text x="72" y="1532" fill="#1b5e20" font-weight="bold">gp14 (U18)</text>
<text x="72" y="1544" fill="#1b5e20">FU1.CS#</text>
<rect x="332" y="1522" width="10" height="10" fill="none" stroke="#e65100" stroke-width="2"/>
<rect x="376" y="1520" width="280" height="30" fill="#1b5e20" fill-opacity="0.15" stroke="#1b5e20" stroke-width="1.5"  rx="3"/>
<text x="382" y="1532" fill="#1b5e20" font-weight="bold">gn14 (U17)</text>
<text x="382" y="1544" fill="#1b5e20">FU1.MISO/DO</text>
<rect x="642" y="1522" width="10" height="10" fill="none" stroke="#e65100" stroke-width="2"/>
<text x="20" y="1575.0" fill="#111111">GND</text>
<rect x="66" y="1556" width="280" height="30" fill="#111111" stroke="#111111" stroke-width="1.5" rx="3"/>
<text x="72" y="1568" fill="#ffffff" font-weight="bold">GND</text>
<text x="72" y="1580" fill="#ffffff">ground</text>
<rect x="376" y="1556" width="280" height="30" fill="#111111" stroke="#111111" stroke-width="1.5" rx="3"/>
<text x="382" y="1568" fill="#ffffff" font-weight="bold">GND</text>
<text x="382" y="1580" fill="#ffffff">ground</text>
<text x="20" y="1611.0" fill="#e65100">PWR</text>
<rect x="66" y="1592" width="280" height="30" fill="#e65100" stroke="#e65100" stroke-width="1.5" rx="3"/>
<text x="72" y="1604" fill="#ffffff" font-weight="bold">+3V3</text>
<text x="72" y="1616" fill="#ffffff">supply</text>
<rect x="376" y="1592" width="280" height="30" fill="#e65100" stroke="#e65100" stroke-width="1.5" rx="3"/>
<text x="382" y="1604" fill="#ffffff" font-weight="bold">+3V3</text>
<text x="382" y="1616" fill="#ffffff">supply</text>
</svg>